<svg width="100" height="100" viewBox="0 0 100 100" fill="none" xmlns="http://www.w3.org/2000/svg">
<g id="01HZJGZS2ANTG9Y574R1FYSQX9" clip-path="url(#clip0_3282_41536)">
<path id="Vector" d="M50.0252 99.9155C77.5843 99.9155 99.9254 77.5744 99.9254 50.0153C99.9254 22.4562 77.5843 0.115112 50.0252 0.115112C22.4661 0.115112 0.125 22.4562 0.125 50.0153C0.125 77.5744 22.4661 99.9155 50.0252 99.9155Z" fill="#2C3B46" fill-opacity="0.12"/>
<path id="Vector_2" d="M79.841 80.21H20.2087C19.8066 80.21 19.4209 80.0503 19.1365 79.7653C18.8522 79.4812 18.6924 79.0956 18.6924 78.6932V39.6617H81.358V78.6932C81.358 79.0956 81.1981 79.4812 80.9133 79.7653C80.6291 80.0503 80.2436 80.21 79.841 80.21Z" fill="white"/>
<path id="Vector_3" d="M81.358 39.6614H18.6924L31.5947 28.603H68.4566L81.358 39.6614Z" fill="#106F6E"/>
<path id="Vector_4" d="M81.358 39.6614H18.6924L31.5947 28.603H68.4566L81.358 39.6614Z" stroke="black" stroke-width="0.0958084" stroke-linecap="round" stroke-linejoin="round"/>
<path id="Vector_5" d="M79.841 80.21H20.2087C19.8066 80.21 19.4209 80.0503 19.1365 79.7653C18.8522 79.4812 18.6924 79.0956 18.6924 78.6932V39.6617H81.358V78.6932C81.358 79.0956 81.1981 79.4812 80.9133 79.7653C80.6291 80.0503 80.2436 80.21 79.841 80.21Z" stroke="black" stroke-width="0.0958084" stroke-linecap="round" stroke-linejoin="round"/>
<path id="Vector_6" d="M68.4561 28.6032L76.159 20.9002C76.6185 20.4407 77.191 20.1109 77.8191 19.9441C78.4473 19.7774 79.1077 19.7798 79.7341 19.951L94.663 24.0223C94.9828 24.1099 95.2736 24.2822 95.5036 24.5211C95.7343 24.76 95.8958 25.0569 95.972 25.38C96.0473 25.703 96.0345 26.0405 95.9347 26.3571C95.8341 26.6734 95.6507 26.9571 95.403 27.1778L81.3567 39.6616L68.4561 28.6032Z" fill="white"/>
<path id="Vector_7" d="M68.4561 28.6032L76.159 20.9002C76.6185 20.4407 77.191 20.1109 77.8191 19.9441C78.4473 19.7774 79.1077 19.7798 79.7341 19.951L94.663 24.0223C94.9828 24.1099 95.2736 24.2822 95.5036 24.5211C95.7343 24.76 95.8958 25.0569 95.972 25.38C96.0473 25.703 96.0345 26.0405 95.9347 26.3571C95.8341 26.6734 95.6507 26.9571 95.403 27.1778L81.3567 39.6616L68.4561 28.6032Z" stroke="black" stroke-width="0.0958084" stroke-linecap="round" stroke-linejoin="round"/>
<path id="Vector_8" d="M31.5953 28.6036L23.8923 20.9006C23.4329 20.4411 22.86 20.1112 22.2319 19.9444C21.6035 19.7777 20.9424 19.7802 20.3155 19.9515L5.38719 24.0228C5.06683 24.1102 4.77608 24.2825 4.54552 24.5214C4.31504 24.7603 4.15336 25.0573 4.07777 25.3807C4.0021 25.7038 4.01522 26.0415 4.11574 26.3581C4.2162 26.6745 4.40043 26.9579 4.64875 27.1783L18.6929 39.6621L31.5953 28.6036Z" fill="white"/>
<path id="Vector_9" d="M31.5953 28.6036L23.8923 20.9006C23.4329 20.4411 22.86 20.1112 22.2319 19.9444C21.6035 19.7777 20.9424 19.7802 20.3155 19.9515L5.38719 24.0228C5.06683 24.1102 4.77608 24.2825 4.54552 24.5214C4.31504 24.7603 4.15336 25.0573 4.07777 25.3807C4.0021 25.7038 4.01522 26.0415 4.11574 26.3581C4.2162 26.6745 4.40043 26.9579 4.64875 27.1783L18.6929 39.6621L31.5953 28.6036Z" stroke="black" stroke-width="0.0958084" stroke-linecap="round" stroke-linejoin="round"/>
<path id="Vector_10" d="M68.4561 39.6615V28.603" stroke="black" stroke-width="0.0958084" stroke-linecap="round" stroke-linejoin="round"/>
<path id="Vector_11" d="M31.5957 39.6615V28.603" stroke="black" stroke-width="0.0958084" stroke-linecap="round" stroke-linejoin="round"/>
<path id="Vector_12" d="M53.559 62.61C52.9429 63.1573 52.1742 63.8389 50.7748 63.8389H49.9411C48.9295 63.8389 48.0123 63.4727 47.3525 62.8056C46.7107 62.1567 46.3555 61.2649 46.3555 60.297V59.1549C46.3555 58.187 46.7107 57.2988 47.3525 56.6461C48.0087 55.9791 48.9295 55.613 49.9411 55.613H50.7748C52.1742 55.613 52.9429 56.2946 53.559 56.8419C54.2008 57.4076 54.7519 57.9006 56.2237 57.9006C56.4521 57.9006 56.677 57.8824 56.8944 57.8461C56.8944 57.8425 56.8908 57.8389 56.8908 57.8317C56.8038 57.6142 56.6988 57.4002 56.5826 57.1936L55.5966 55.4896C54.6938 53.9236 53.0225 52.9593 51.2171 52.9593H49.2485C47.4431 52.9593 45.7718 53.9236 44.869 55.4896L43.883 57.1936C42.9804 58.7597 42.9804 60.6848 43.883 62.2511L44.869 63.9549C45.7718 65.5212 47.4431 66.4854 49.2485 66.4854H51.2171C53.0225 66.4854 54.6938 65.5212 55.5966 63.9549L56.5826 62.2511C56.7024 62.0443 56.8038 61.8306 56.8908 61.6166C56.8908 61.613 56.8944 61.6094 56.8944 61.602C56.677 61.5659 56.4521 61.5477 56.2237 61.5477C54.7519 61.5513 54.2008 62.0407 53.559 62.61Z" fill="#106F6E"/>
<path id="Vector_13" d="M50.7789 56.6499H49.9452C48.4081 56.6499 47.3965 57.7483 47.3965 59.1549V60.297C47.3965 61.7036 48.4081 62.802 49.9452 62.802H50.7789C53.0194 62.802 52.8454 60.5182 56.2278 60.5182C56.5506 60.5182 56.8731 60.5471 57.1849 60.6052C57.2865 60.0249 57.2865 59.4305 57.1849 58.8467C56.8731 58.9048 56.5542 58.9337 56.2278 58.9337C52.8418 58.9337 53.0194 56.6499 50.7789 56.6499Z" fill="#106F6E"/>
<path id="Vector_14" d="M59.1239 61.4389C58.5475 61.0112 57.884 60.7355 57.1806 60.6052C57.1806 60.6124 57.177 60.616 57.177 60.6232C57.1153 60.9567 57.0211 61.2866 56.8942 61.6094C57.4888 61.7036 58.0327 61.9284 58.5004 62.2691C58.5004 62.2729 58.4966 62.28 58.4966 62.2836C58.2283 63.1573 57.8223 63.984 57.2894 64.7343C56.7636 65.4741 56.1293 66.1266 55.4041 66.6741C53.896 67.805 52.098 68.4032 50.2053 68.4032C49.0345 68.4032 47.8962 68.1749 46.8303 67.7218C45.797 67.283 44.8688 66.6595 44.0714 65.8619C43.2738 65.0643 42.6503 64.1361 42.2115 63.103C41.7582 62.0335 41.5299 60.8988 41.5299 59.7278C41.5299 58.5567 41.7582 57.4184 42.2115 56.3525C42.6503 55.3194 43.2738 54.3912 44.0714 53.5936C44.8688 52.796 45.797 52.1725 46.8303 51.7339C47.8998 51.2807 49.0345 51.0523 50.2053 51.0523C52.098 51.0523 53.896 51.6505 55.4041 52.7817C56.1293 53.3254 56.7674 53.9779 57.2894 54.7212C57.8223 55.4717 58.2283 56.2946 58.4966 57.1719C58.4966 57.1793 58.5004 57.1828 58.5004 57.1864C58.0327 57.5272 57.4852 57.7519 56.8942 57.8463C57.0211 58.1653 57.1153 58.4952 57.177 58.8323C57.177 58.8359 57.177 58.8431 57.1806 58.8469C57.884 58.7164 58.5475 58.4371 59.1239 58.013C59.6786 57.6034 59.5698 57.1393 59.4864 56.8637C58.2646 52.8976 54.5704 50.0154 50.2053 50.0154C44.8435 50.0154 40.4932 54.3623 40.4932 59.7278C40.4932 65.0934 44.8399 69.4401 50.2053 69.4401C54.574 69.4401 58.2682 66.5579 59.4864 62.5918C59.5734 62.3126 59.6786 61.8487 59.1239 61.4389Z" fill="#106F6E"/>
<path id="Vector_15" d="M56.8983 57.8463C56.6807 57.8824 56.456 57.9006 56.2276 57.9006C54.7556 57.9006 54.2009 57.4112 53.563 56.8419C52.9466 56.2946 52.1779 55.613 50.7785 55.613H49.9448C48.9332 55.613 48.0161 55.9792 47.3562 56.6463C46.7147 57.2952 46.3594 58.187 46.3594 59.1549V60.297C46.3594 61.2649 46.7147 62.1531 47.3562 62.8058C48.0125 63.4729 48.9332 63.8389 49.9448 63.8389H50.7785C52.1779 63.8389 52.9466 63.1573 53.563 62.61C54.2047 62.0443 54.7556 61.5513 56.2276 61.5513C56.456 61.5513 56.6807 61.5695 56.8983 61.6058C57.025 61.2866 57.1195 60.9567 57.1809 60.6196C57.1809 60.6124 57.1847 60.6088 57.1847 60.6014C56.8729 60.5435 56.5538 60.5146 56.2276 60.5146C52.845 60.5146 53.0191 62.7984 50.7785 62.7984H49.9448C48.4077 62.7984 47.3961 61.7 47.3961 60.2934V59.1549C47.3961 57.7483 48.4077 56.6499 49.9448 56.6499H50.7785C53.0191 56.6499 52.845 58.9337 56.2276 58.9337C56.5502 58.9337 56.8729 58.9048 57.1847 58.8469C57.1847 58.8431 57.1847 58.8359 57.1809 58.8323C57.1195 58.4952 57.025 58.1653 56.8983 57.8463Z" fill="#048081" fill-opacity="0.35"/>
<path id="Vector_16" d="M56.8983 57.8463C56.6807 57.8824 56.456 57.9006 56.2276 57.9006C54.7556 57.9006 54.2009 57.4112 53.563 56.8419C52.9466 56.2946 52.1779 55.613 50.7785 55.613H49.9448C48.9332 55.613 48.0161 55.9792 47.3562 56.6463C46.7147 57.2952 46.3594 58.187 46.3594 59.1549V60.297C46.3594 61.2649 46.7147 62.1531 47.3562 62.8058C48.0125 63.4729 48.9332 63.8389 49.9448 63.8389H50.7785C52.1779 63.8389 52.9466 63.1573 53.563 62.61C54.2047 62.0443 54.7556 61.5513 56.2276 61.5513C56.456 61.5513 56.6807 61.5695 56.8983 61.6058C57.025 61.2866 57.1195 60.9567 57.1809 60.6196C57.1809 60.6124 57.1847 60.6088 57.1847 60.6014C56.8729 60.5435 56.5538 60.5146 56.2276 60.5146C52.845 60.5146 53.0191 62.7984 50.7785 62.7984H49.9448C48.4077 62.7984 47.3961 61.7 47.3961 60.2934V59.1549C47.3961 57.7483 48.4077 56.6499 49.9448 56.6499H50.7785C53.0191 56.6499 52.845 58.9337 56.2276 58.9337C56.5502 58.9337 56.8729 58.9048 57.1847 58.8469C57.1847 58.8431 57.1847 58.8359 57.1809 58.8323C57.1195 58.4952 57.025 58.1653 56.8983 57.8463Z" fill="#048081" fill-opacity="0.35"/>
</g>
<defs>
<clipPath id="clip0_3282_41536">
<rect width="100" height="100" fill="white"/>
</clipPath>
</defs>
</svg>
