<svg width="100" height="100" viewBox="0 0 100 100" fill="none" xmlns="http://www.w3.org/2000/svg">
<g id="01JC1N6P9YRB4D5RN7RVEEKHYX" clip-path="url(#clip0_3282_41506)">
<path id="Vector" d="M50 100C77.6142 100 100 77.6142 100 50C100 22.3858 77.6142 0 50 0C22.3858 0 0 22.3858 0 50C0 77.6142 22.3858 100 50 100Z" fill="#2C3B46" fill-opacity="0.12"/>
<path id="Vector_2" d="M80.2699 4.5946H18.6483C16.7078 4.5946 15.1348 6.16766 15.1348 8.10812V88.1081C15.1348 90.0486 16.7078 91.6216 18.6483 91.6216H80.2699C82.2104 91.6216 83.7834 90.0486 83.7834 88.1081V8.10812C83.7834 6.16766 82.2104 4.5946 80.2699 4.5946Z" fill="white" stroke="#212E51" stroke-width="2.16216"/>
<path id="Vector_3" d="M53.5771 20.6412H71.7661" stroke="black" stroke-width="0.810811"/>
<path id="Vector_4" d="M48.9189 31.4865H71.7025" stroke="black" stroke-width="0.810811"/>
<path id="Vector_5" d="M22.1621 37.9756H71.7024" stroke="black" stroke-width="0.810811"/>
<path id="Vector_6" d="M53.5137 26.0211H71.7658" stroke="black" stroke-width="0.810811"/>
<path id="Vector_7" d="M22.4238 80H70.676" stroke="black" stroke-width="0.810811"/>
<path id="Vector_8" d="M35.0002 34.5946C41.9411 34.5946 47.5678 28.9679 47.5678 22.027C47.5678 15.0862 41.9411 9.45947 35.0002 9.45947C28.0593 9.45947 22.4326 15.0862 22.4326 22.027C22.4326 28.9679 28.0593 34.5946 35.0002 34.5946Z" fill="#106F6E"/>
<path id="Vector_9" d="M39.2032 24.8406C39.2032 26.9406 37.6518 28.3406 35.5329 28.5865V30.2703H34.341V28.6054C32.2788 28.4541 30.7653 27.4325 30.1221 25.7676L31.6356 24.8973C32.0518 26.0325 32.941 26.7325 34.341 26.8838V22.3054C32.468 21.6244 30.7653 20.8676 30.7653 18.5217C30.7653 16.4027 32.3923 15.0973 34.341 14.9082V13.2433H35.5329V14.9271C37.0086 15.1163 38.2761 15.9487 38.9383 17.4622L37.4626 18.2946C37.0842 17.3487 36.4221 16.819 35.5329 16.6487V21C37.3869 21.6811 39.2032 22.4379 39.2032 24.8406ZM32.5059 18.5217C32.5059 19.5244 33.1302 20.0352 34.341 20.546V16.6298C33.2437 16.7811 32.5059 17.4811 32.5059 18.5217ZM35.5329 26.846C36.7626 26.6568 37.4437 25.8811 37.4437 24.8595C37.4437 23.7433 36.7059 23.2325 35.5329 22.7406V26.846Z" fill="white"/>
<path id="Vector_10" d="M22.1621 50.2703H71.5072" stroke="black" stroke-width="0.810811"/>
<path id="Vector_11" d="M22.1621 73.9189H71.3513" stroke="black" stroke-width="0.810811"/>
<path id="Vector_12" d="M22.1621 67.973H57.5675" stroke="black" stroke-width="0.810811"/>
<path id="Vector_13" d="M22.1621 62.4324H60.2702" stroke="black" stroke-width="0.810811"/>
<path id="Vector_14" d="M22.1621 56.3514H71.6356" stroke="black" stroke-width="0.810811"/>
<path id="Vector_15" d="M22.1621 44.1892H71.6356" stroke="black" stroke-width="0.810811"/>
<path id="Vector_16" d="M85.7592 39.8912L66.8672 59.2081L74.4819 66.6553L93.3739 47.3384L85.7592 39.8912Z" fill="white"/>
<path id="Vector_17" d="M65.9951 58.5995L74.6438 67.2481" stroke="#106F6E" stroke-width="2.43243"/>
<path id="Vector_18" fill-rule="evenodd" clip-rule="evenodd" d="M85.656 40.7216L66.5733 59.8835L64.6525 68.6341L73.3974 66.7141L92.4958 47.5676C92.7003 47.3187 92.8028 47.0005 92.7812 46.6781C92.759 46.3435 92.6052 46.0311 92.3536 45.8095C92.3328 45.7914 92.3128 45.7724 92.2933 45.753L87.4644 40.9278C87.4449 40.9084 87.4263 40.8881 87.4079 40.8676C87.1868 40.6165 86.8752 40.4632 86.5414 40.4405C86.2209 40.4189 85.9047 40.5197 85.656 40.7216ZM83.9139 38.7703C84.6882 38.1003 85.6958 37.7627 86.7174 37.8316C87.7239 37.8997 88.6639 38.3565 89.339 39.1043L94.1155 43.8773C94.8658 44.5535 95.3236 45.4959 95.3904 46.5051C95.4585 47.5292 95.1182 48.5387 94.4441 49.3127C94.4247 49.3351 94.4044 49.3565 94.3836 49.3776L74.9779 68.8322C74.8012 69.0095 74.5771 69.1322 74.3328 69.1857L63.2176 71.6262C62.7822 71.7219 62.3282 71.5892 62.0128 71.2738C61.6976 70.9587 61.5647 70.5043 61.6603 70.0689L64.1009 58.9505C64.1541 58.7076 64.2758 58.4846 64.4514 58.3084L83.8433 38.8362C83.866 38.8135 83.8895 38.7914 83.9139 38.7703Z" fill="#106F6E"/>
</g>
<defs>
<clipPath id="clip0_3282_41506">
<rect width="100" height="100" fill="white"/>
</clipPath>
</defs>
</svg>
