<svg width="112" height="100" viewBox="0 0 112 100" fill="none" xmlns="http://www.w3.org/2000/svg">
<g id="01HZJGZZ96W1D6MM53NE9NRGYH" clip-path="url(#clip0_3282_41466)">
<path id="Vector" d="M0.915039 49.9926C0.915039 63.2286 6.17302 75.9225 15.5323 85.2817C24.8916 94.641 37.5855 99.899 50.8214 99.899C64.0574 99.899 76.7513 94.641 86.1106 85.2817C95.4698 75.9225 100.728 63.2286 100.728 49.9926C100.728 36.7566 95.4698 24.0627 86.1106 14.7034C76.7513 5.34416 64.0574 0.0861816 50.8214 0.0861816C37.5855 0.0861816 24.8916 5.34416 15.5323 14.7034C6.17302 24.0627 0.915039 36.7566 0.915039 49.9926Z" fill="#2C3B46" fill-opacity="0.12"/>
<path id="Vector_2" d="M79.2766 73.3563H19.4975C18.1739 73.3563 16.9045 72.8306 15.9686 71.8947C15.0326 70.9587 14.5068 69.6893 14.5068 68.3657V28.0189C14.5068 26.8276 14.98 25.6852 15.8224 24.8427C16.6647 24.0005 17.8072 23.5273 18.9984 23.5273H79.7758C80.9669 23.5273 82.1095 24.0005 82.9517 24.8427C83.7942 25.6852 84.2674 26.8276 84.2674 28.0189V68.3657C84.2674 69.6893 83.7415 70.9587 82.8056 71.8947C81.8696 72.8306 80.6003 73.3563 79.2766 73.3563Z" fill="#048081"/>
<path id="Vector_3" d="M79.2766 73.3563H19.4975C18.1739 73.3563 16.9045 72.8306 15.9686 71.8947C15.0326 70.9587 14.5068 69.6893 14.5068 68.3657V28.0189C14.5068 26.8276 14.98 25.6852 15.8224 24.8427C16.6647 24.0005 17.8072 23.5273 18.9984 23.5273H79.7758C80.9669 23.5273 82.1095 24.0005 82.9517 24.8427C83.7942 25.6852 84.2674 26.8276 84.2674 28.0189V68.3657C84.2674 69.6893 83.7415 70.9587 82.8057 71.8947C81.8696 72.8306 80.6003 73.3563 79.2766 73.3563Z" stroke="#00152B" stroke-width="0.399167" stroke-linecap="round" stroke-linejoin="round"/>
<path id="Vector_4" d="M14.5068 68.1162C14.5068 68.8044 14.6424 69.4858 14.9057 70.1214C15.1691 70.7573 15.555 71.3349 16.0417 71.8215C16.5283 72.3081 17.1059 72.6941 17.7417 72.9575C18.3775 73.2208 19.0589 73.3563 19.747 73.3563H79.0271C79.7153 73.3563 80.3967 73.2208 81.0326 72.9575C81.6682 72.6941 82.2458 72.3081 82.7326 71.8215C83.2192 71.3349 83.6052 70.7573 83.8684 70.1214C84.1317 69.4858 84.2674 68.8044 84.2674 68.1162V65.3837H14.5068V68.1162Z" fill="white" stroke="#00152B" stroke-width="0.399167" stroke-linecap="round" stroke-linejoin="round"/>
<path id="Vector_5" d="M55.367 81.3302H43.4082L44.4037 73.3562H54.3701L55.367 81.3302Z" fill="white"/>
<path id="Vector_6" d="M55.367 81.3302H43.4082L44.4037 73.3562H54.3701L55.367 81.3302Z" stroke="#00152B" stroke-width="0.399167" stroke-linecap="round" stroke-linejoin="round"/>
<path id="Vector_7" d="M62.3422 85.3151H36.4307C36.4327 84.2575 36.8542 83.244 37.6028 82.4968C38.3513 81.7497 39.3657 81.3302 40.4233 81.3302H58.3559C58.8792 81.33 59.3977 81.433 59.8813 81.6332C60.3649 81.8334 60.8044 82.1267 61.1746 82.497C61.5446 82.867 61.8384 83.3063 62.0386 83.7899C62.239 84.2735 62.3422 84.7918 62.3422 85.3151Z" fill="white" stroke="#00152B" stroke-width="0.399167" stroke-linecap="round" stroke-linejoin="round"/>
<path id="Vector_8" d="M85.2593 54.4218H33.4465C32.6532 54.4196 31.8927 54.1032 31.3317 53.5422C30.7707 52.9812 30.4545 52.221 30.4521 51.4274V16.5516H88.2537V51.4274C88.2515 52.221 87.9351 52.9812 87.3741 53.5422C86.8131 54.1032 86.0529 54.4196 85.2593 54.4218Z" fill="white" stroke="#00152B" stroke-width="0.399167" stroke-linecap="round" stroke-linejoin="round"/>
<path id="Vector_9" d="M88.2537 16.5516H30.4521V7.58716C30.4545 6.79372 30.7707 6.03341 31.3317 5.47236C31.8927 4.91131 32.6532 4.59509 33.4465 4.59277H85.2593C86.0529 4.59509 86.8131 4.91131 87.3741 5.47236C87.9351 6.03341 88.2515 6.79372 88.2537 7.58716V16.5516Z" fill="white" stroke="#00152B" stroke-width="0.399167" stroke-linecap="round" stroke-linejoin="round"/>
<path id="Vector_10" d="M34.4375 10.5715C34.4375 11.1003 34.6475 11.6074 35.0215 11.9813C35.3953 12.3552 35.9024 12.5653 36.4311 12.5653C36.96 12.5653 37.4672 12.3552 37.841 11.9813C38.2148 11.6074 38.425 11.1003 38.425 10.5715C38.425 10.0427 38.2148 9.53562 37.841 9.1617C37.4672 8.7878 36.96 8.57776 36.4311 8.57776C35.9024 8.57776 35.3953 8.7878 35.0215 9.1617C34.6475 9.53562 34.4375 10.0427 34.4375 10.5715Z" fill="#048081" stroke="#00152B" stroke-width="0.399167" stroke-linecap="round" stroke-linejoin="round"/>
<path id="Vector_11" d="M42.4102 10.5715C42.4102 11.1003 42.6201 11.6074 42.9941 11.9813C43.368 12.3552 43.8751 12.5653 44.4038 12.5653C44.9327 12.5653 45.4398 12.3552 45.8137 11.9813C46.1875 11.6074 46.3976 11.1003 46.3976 10.5715C46.3976 10.0427 46.1875 9.53562 45.8137 9.1617C45.4398 8.7878 44.9327 8.57776 44.4038 8.57776C43.8751 8.57776 43.368 8.7878 42.9941 9.1617C42.6201 9.53562 42.4102 10.0427 42.4102 10.5715Z" fill="#048081" stroke="#00152B" stroke-width="0.399167" stroke-linecap="round" stroke-linejoin="round"/>
<path id="Vector_12" d="M50.3838 10.5716C50.3838 11.1004 50.5938 11.6075 50.9678 11.9814C51.3416 12.3553 51.8487 12.5653 52.3774 12.5653C52.9063 12.5653 53.4135 12.3553 53.7873 11.9814C54.1613 11.6075 54.3713 11.1004 54.3713 10.5716C54.3713 10.0428 54.1613 9.53568 53.7873 9.16176C53.4135 8.78786 52.9063 8.57782 52.3774 8.57782C51.8487 8.57782 51.3416 8.78786 50.9678 9.16176C50.5938 9.53568 50.3838 10.0428 50.3838 10.5716Z" fill="#048081" stroke="#00152B" stroke-width="0.399167" stroke-linecap="round" stroke-linejoin="round"/>
<path id="Vector_13" d="M48.3916 28.5105H56.3642V36.4831H48.3916V28.5105Z" fill="#048081" stroke="#00152B" stroke-width="0.399167" stroke-linecap="round" stroke-linejoin="round"/>
<path id="Vector_14" d="M61.3457 28.5105H69.3183V36.4831H61.3457V28.5105Z" fill="#048081" stroke="#00152B" stroke-width="0.399167" stroke-linecap="round" stroke-linejoin="round"/>
<path id="Vector_15" d="M74.3008 28.5105H82.2733V36.4831H74.3008V28.5105Z" fill="#048081" stroke="#00152B" stroke-width="0.399167" stroke-linecap="round" stroke-linejoin="round"/>
<path id="Vector_16" d="M48.3916 40.4694H56.3642V48.4419H48.3916V40.4694Z" fill="#048081" stroke="#00152B" stroke-width="0.399167" stroke-linecap="round" stroke-linejoin="round"/>
<path id="Vector_17" d="M61.3457 40.4693H69.3183V48.4419H61.3457V40.4693Z" fill="#048081" stroke="#00152B" stroke-width="0.399167" stroke-linecap="round" stroke-linejoin="round"/>
<path id="Vector_18" d="M74.3008 40.4694H82.2733V48.4419H74.3008V40.4694Z" fill="#048081" stroke="#00152B" stroke-width="0.399167" stroke-linecap="round" stroke-linejoin="round"/>
<path id="Vector_19" d="M36.4307 20.5379H44.4032V24.5242H36.4307V20.5379Z" fill="#048081" stroke="#00152B" stroke-width="0.399167" stroke-linecap="round" stroke-linejoin="round"/>
<path id="Vector_20" d="M48.3916 20.538H82.2755V24.5242H48.3916V20.538Z" fill="#048081" stroke="#00152B" stroke-width="0.399167" stroke-linejoin="round"/>
<path id="Vector_21" d="M36.4307 28.5105H44.4032" stroke="#00152B" stroke-width="0.399167" stroke-linecap="round" stroke-linejoin="round"/>
<path id="Vector_22" d="M36.4307 32.4968H44.4032" stroke="#00152B" stroke-width="0.399167" stroke-linecap="round" stroke-linejoin="round"/>
<path id="Vector_23" d="M36.4307 36.483H44.4032" stroke="#00152B" stroke-width="0.399167" stroke-linecap="round" stroke-linejoin="round"/>
<path id="Vector_24" d="M36.4307 40.4693H44.4032" stroke="#00152B" stroke-width="0.399167" stroke-linecap="round" stroke-linejoin="round"/>
<path id="Vector_25" d="M36.4307 44.4556H44.4032" stroke="#00152B" stroke-width="0.399167" stroke-linecap="round" stroke-linejoin="round"/>
<path id="Vector_26" d="M36.4307 48.4419H41.4139" stroke="#00152B" stroke-width="0.399167" stroke-linecap="round" stroke-linejoin="round"/>
<path id="Vector_27" d="M101.217 70.2597C100.929 71.3177 100.343 71.355 99.9255 70.3431L93.3889 54.6514C92.9672 53.6396 93.45 53.1542 94.4619 53.5771L110.15 60.1136C111.162 60.5354 111.125 61.1118 110.068 61.405L105.036 62.7773C104.466 62.9679 103.948 63.288 103.524 63.7129C103.099 64.1378 102.779 64.6556 102.589 65.2254L101.217 70.2597Z" fill="white" stroke="#00152B" stroke-width="0.399167" stroke-linejoin="round"/>
<path id="Vector_28" d="M48.5557 69.37C48.5557 69.5905 48.6431 69.8019 48.799 69.9576C48.9548 70.1134 49.1662 70.2011 49.3865 70.2011C49.6069 70.2011 49.8182 70.1134 49.9741 69.9576C50.13 69.8019 50.2174 69.5905 50.2174 69.37C50.2174 69.1496 50.13 68.9383 49.9741 68.7824C49.8182 68.6267 49.6069 68.5391 49.3865 68.5391C49.1662 68.5391 48.9548 68.6267 48.799 68.7824C48.6431 68.9383 48.5557 69.1496 48.5557 69.37Z" fill="#00152B" stroke="#00152B" stroke-width="0.399167" stroke-linecap="round" stroke-linejoin="round"/>
</g>
<defs>
<clipPath id="clip0_3282_41466">
<rect width="110.17" height="99.9912" fill="white" transform="translate(0.915039 0.00439453)"/>
</clipPath>
</defs>
</svg>
