<svg width="102" height="101" viewBox="0 0 102 101" fill="none" xmlns="http://www.w3.org/2000/svg">
<g id="01HZJGZY2WHVSFCSDYPF1NCWWM" clip-path="url(#clip0_3282_41614)">
<path id="Vector" d="M51.317 100.8C78.7358 100.8 100.963 78.4141 100.963 50.8C100.963 23.1858 78.7358 0.80011 51.317 0.80011C23.8982 0.80011 1.6709 23.1858 1.6709 50.8C1.6709 78.4141 23.8982 100.8 51.317 100.8Z" fill="#2C3B46" fill-opacity="0.12"/>
<path id="Vector_2" fill-rule="evenodd" clip-rule="evenodd" d="M66.0466 59.6275C65.9723 59.6405 65.3842 60.2792 64.7396 61.0465C63.8925 62.0548 63.5036 62.4437 63.3363 62.4494C63.2088 62.4537 62.835 62.3846 62.5055 62.2959L61.9061 62.1346L61.1807 60.4329C60.7817 59.497 60.3807 58.6997 60.2896 58.6608C60.0517 58.5597 57.0434 58.897 56.8004 59.0521C56.6136 59.1713 56.5782 59.3267 56.3801 60.8951C56.2612 61.8373 56.1282 62.6721 56.0847 62.7508C56.0415 62.8294 55.6609 63.0327 55.2399 63.2021L54.4739 63.5105L52.8934 62.4427C52.0242 61.8551 51.2385 61.3862 51.1477 61.4002C50.9018 61.4383 48.5001 63.4132 48.4583 63.6121C48.4383 63.7062 48.7555 64.4851 49.1634 65.3429C49.5712 66.2008 49.8839 67.0005 49.8588 67.1202C49.8031 67.3826 49.0674 68.4932 48.8545 68.6364C48.771 68.6924 47.8915 68.7099 46.8996 68.6754C45.9077 68.6408 45.0277 68.6559 44.9439 68.7094C44.8599 68.7629 44.5953 69.387 44.3556 70.0964C43.651 72.1829 43.5375 71.8475 45.3277 72.9618C46.1739 73.4883 46.9161 73.9883 46.9769 74.0724C47.0377 74.1567 47.0693 74.688 47.0472 75.2532L47.0069 76.2807L45.3802 77.2651C44.4856 77.8064 43.7423 78.3015 43.7288 78.3651C43.6775 78.6086 44.5231 81.488 44.6715 81.574C44.7572 81.6237 45.578 81.6559 46.495 81.6459C47.4123 81.6356 48.2385 81.6437 48.3315 81.6637C48.5369 81.7077 49.3461 82.8531 49.5285 83.3577L49.6601 83.7223L48.8782 85.3091C48.4483 86.1821 48.1093 86.9758 48.1253 87.0737C48.1553 87.2612 50.3301 89.2358 50.5615 89.2856C50.6358 89.3015 51.3636 88.8799 52.1785 88.3488C52.9934 87.8175 53.7653 87.3794 53.8939 87.375C54.1704 87.3656 55.5861 87.9856 55.8312 88.2237C55.9439 88.3329 56.0763 89.0034 56.2193 90.1877L56.4361 91.9858L57.0439 92.1515C58.0974 92.4383 59.5523 92.6007 59.8123 92.4607C59.9861 92.3672 60.2215 91.9304 60.7217 90.7734C61.1239 89.8431 61.4766 89.1602 61.5944 89.0834C61.8447 88.9199 63.2123 88.6958 63.5358 88.7653C63.6923 88.7991 64.1796 89.3053 64.8936 90.1764C65.506 90.9234 66.0777 91.5499 66.1639 91.5685C66.3512 91.6085 69.165 90.3126 69.2828 90.1318C69.3279 90.0623 69.239 89.2012 69.0855 88.2185C68.9317 87.2356 68.8185 86.3748 68.8339 86.305C68.8841 86.0766 70.1033 85.0518 70.3282 85.0488C70.449 85.0469 71.2617 85.2864 72.1339 85.5807C73.5774 86.0677 73.7395 86.1048 73.9371 85.9948C74.2095 85.8429 75.8206 83.2621 75.7841 83.0359C75.7695 82.944 75.2139 82.2605 74.5495 81.5169C73.8598 80.7448 73.3382 80.0699 73.3333 79.9437C73.3285 79.8218 73.4247 79.4323 73.5466 79.0783L73.7685 78.4342L75.5563 77.965C76.5395 77.7072 77.383 77.4278 77.4309 77.3442C77.533 77.1656 77.5233 73.8699 77.4201 73.7116C77.3811 73.6518 76.5782 73.3867 75.636 73.1226C74.6939 72.8583 73.8703 72.6121 73.806 72.5756C73.6139 72.4662 73.2749 71.4202 73.3355 71.1232C73.3695 70.957 73.8612 70.341 74.5709 69.5759C75.2193 68.8767 75.7601 68.2581 75.7725 68.2013C75.8176 67.9959 73.9479 65.0924 73.7422 65.0483C73.6306 65.0243 72.7949 65.2289 71.8849 65.5027C70.975 65.7764 70.1366 65.9802 70.0222 65.9556C69.7566 65.8986 69.0304 65.2416 68.9628 64.997C68.9344 64.8948 69.0444 64.024 69.2071 63.0621C69.3979 61.9329 69.4682 61.2637 69.4052 61.1737C69.3236 61.0573 66.3982 59.6102 66.235 59.6056C66.2058 59.6048 66.1209 59.6148 66.0466 59.6275ZM64.8801 66.7678C67.2693 67.9802 69.1187 70.1572 69.9512 72.7364C71.4371 77.3421 69.1747 82.5307 64.796 84.558C62.8739 85.4483 60.9412 85.7212 58.9034 85.3907C54.3177 84.6467 50.9509 80.9959 50.5204 76.3002C50.4393 75.4161 50.4609 75.2107 50.8104 73.5597C51.1615 71.901 51.2218 71.7145 51.6653 70.9178C53.4939 67.6324 56.9555 65.6386 60.7115 65.7078C61.7839 65.7278 63.8815 66.261 64.8801 66.7678Z" fill="#048081" fill-opacity="0.28"/>
<path id="Vector_3" d="M31.9625 34.3078C31.8687 34.3286 31.1596 35.1765 30.3866 36.1916C29.3706 37.5259 28.8996 38.0443 28.6871 38.0616C28.5255 38.0748 28.046 38.0097 27.6216 37.9173L26.8498 37.7492L25.8245 35.63C25.2606 34.4646 24.7027 33.4754 24.5846 33.4316C24.2759 33.3176 20.4713 33.9311 20.1719 34.1432C19.9416 34.3062 19.9061 34.5062 19.7491 36.5121C19.6548 37.7173 19.5364 38.787 19.4858 38.8897C19.4353 38.9924 18.9641 39.274 18.4387 39.5154L17.4836 39.9546L15.4096 38.6938C14.2689 38.0002 13.2417 37.4521 13.127 37.4754C12.8167 37.5389 9.88272 40.1973 9.84126 40.4527C9.82164 40.5735 10.2722 41.5443 10.8425 42.61C11.4129 43.6756 11.8591 44.6732 11.8341 44.8273C11.7793 45.1643 10.9113 46.6213 10.649 46.8164C10.5463 46.8927 9.42901 46.9689 8.16594 46.9856C6.90283 47.0027 5.78489 47.0762 5.68138 47.1491C5.57789 47.2224 5.27919 48.0321 5.01746 48.9489C4.62765 50.3143 4.39297 50.8808 4.56087 51.277C4.72441 51.6629 5.27011 51.8872 6.42673 52.5321C7.53451 53.1497 8.50823 53.7397 8.59064 53.8432C8.67318 53.9467 8.74558 54.6202 8.75156 55.3399L8.76245 56.6488L6.75375 58.0002C5.64884 58.7434 4.73408 59.4186 4.72081 59.5002C4.67003 59.8129 5.91957 63.4221 6.11321 63.5221C6.22532 63.5799 7.27064 63.5707 8.43613 63.5018C9.60164 63.4323 10.6528 63.3918 10.7723 63.4115C11.0359 63.455 12.1341 64.8618 12.3964 65.4921L12.5859 65.9475L11.6879 68.0129C11.194 69.1491 10.8111 70.1794 10.8371 70.3026C10.8868 70.5394 13.7714 72.9166 14.0685 72.9656C14.164 72.9812 15.0637 72.4007 16.0676 71.6753C17.0716 70.9499 18.0265 70.3453 18.1896 70.3318C18.5409 70.3029 20.378 71.0042 20.7043 71.2921C20.8541 71.4239 21.063 72.2683 21.3164 73.7653L21.7009 76.0382L22.4838 76.2115C23.8403 76.5115 25.7001 76.6288 26.0222 76.4347C26.2373 76.305 26.5103 75.7353 27.0763 74.2337C27.5315 73.0264 27.9385 72.1364 28.0836 72.0315C28.392 71.8083 30.1174 71.4396 30.5328 71.508C30.7339 71.5412 31.3839 72.155 32.3444 73.2185C33.1682 74.131 33.9328 74.8923 34.0436 74.9107C34.2841 74.9501 37.7833 73.1296 37.9222 72.8926C37.9755 72.8015 37.8103 71.7123 37.5557 70.4723C37.3009 69.2321 37.1047 68.1442 37.1201 68.055C37.1701 67.7615 38.6582 66.3834 38.9439 66.3658C39.0976 66.3564 40.1452 66.611 41.272 66.9315C43.1365 67.4621 43.3449 67.4994 43.5895 67.3472C43.9268 67.1375 45.819 63.7575 45.759 63.4718C45.7346 63.3559 44.9871 62.521 44.0976 61.6164C43.1736 60.6769 42.4698 59.8513 42.456 59.6907C42.4425 59.5361 42.5409 59.0353 42.6749 58.5775L42.9179 57.7451L45.1625 57.0388C46.3971 56.6505 47.4525 56.2434 47.5082 56.1345C47.6276 55.901 47.4157 51.7113 47.2746 51.5164C47.2217 51.4429 46.1849 51.1551 44.9709 50.877C43.7571 50.5989 42.6952 50.3364 42.6111 50.2937C42.3601 50.1667 41.866 48.8575 41.9252 48.4762C41.9584 48.2629 42.5463 47.4497 43.4022 46.4332C44.1844 45.5043 44.8344 44.6846 44.8468 44.6116C44.8919 44.3478 42.339 40.7711 42.0749 40.7275C41.9314 40.7038 40.8811 41.0151 39.7409 41.4189C38.6003 41.8229 37.5468 42.1335 37.3998 42.1094C37.0587 42.0532 36.0955 41.2621 35.9949 40.9556C35.9528 40.8273 36.0398 39.7132 36.1885 38.4802C36.3628 37.033 36.4117 36.1778 36.3263 36.0676C36.2155 35.9243 32.4085 34.264 32.2006 34.2681C32.1633 34.2689 32.056 34.2867 31.9625 34.3078ZM30.9112 43.4575C34.0222 44.8524 36.5055 47.5067 37.7195 50.7348C39.8876 56.4994 37.3249 63.2353 31.8806 66.0815C29.4904 67.3313 27.0496 67.7969 24.4388 67.5015C18.5634 66.8369 14.0623 62.4018 13.2307 56.458C13.0741 55.3389 13.0893 55.0767 13.4336 52.9562C13.7796 50.8256 13.8451 50.5848 14.3606 49.5448C16.4869 45.2554 20.7676 42.5081 25.547 42.3656C26.9116 42.3251 29.6109 42.8743 30.9112 43.4575Z" fill="#212E51"/>
<path id="Vector_4" d="M31.9625 34.3078C31.8687 34.3286 31.1596 35.1765 30.3866 36.1916C29.3706 37.5259 28.8996 38.0443 28.6871 38.0616C28.5255 38.0748 28.046 38.0097 27.6216 37.9173L26.8498 37.7492L25.8245 35.63C25.2606 34.4646 24.7027 33.4754 24.5846 33.4316C24.2759 33.3176 20.4713 33.9311 20.1719 34.1432C19.9416 34.3062 19.9061 34.5062 19.7491 36.5121C19.6548 37.7173 19.5364 38.787 19.4858 38.8897C19.4353 38.9924 18.9641 39.274 18.4387 39.5154L17.4836 39.9546L15.4096 38.6938C14.2689 38.0002 13.2417 37.4521 13.127 37.4754C12.8167 37.5389 9.88272 40.1973 9.84126 40.4527C9.82164 40.5735 10.2722 41.5443 10.8425 42.61C11.4129 43.6756 11.8591 44.6732 11.8341 44.8273C11.7793 45.1643 10.9113 46.6213 10.649 46.8164C10.5463 46.8927 9.42901 46.9689 8.16594 46.9856C6.90283 47.0027 5.78489 47.0762 5.68138 47.1491C5.57789 47.2224 5.27919 48.0321 5.01746 48.9489C4.62765 50.3143 4.39297 50.8808 4.56087 51.277C4.72441 51.6629 5.27011 51.8872 6.42673 52.5321C7.53451 53.1497 8.50823 53.7397 8.59064 53.8432C8.67318 53.9467 8.74558 54.6202 8.75156 55.3399L8.76245 56.6488L6.75375 58.0002C5.64884 58.7434 4.73408 59.4186 4.72081 59.5002C4.67003 59.8129 5.91957 63.4221 6.11321 63.5221C6.22532 63.5799 7.27064 63.5707 8.43613 63.5018C9.60164 63.4323 10.6528 63.3918 10.7723 63.4115C11.0359 63.455 12.1341 64.8618 12.3964 65.4921L12.5859 65.9475L11.6879 68.0129C11.194 69.1491 10.8111 70.1794 10.8371 70.3026C10.8868 70.5394 13.7714 72.9166 14.0685 72.9656C14.164 72.9812 15.0637 72.4007 16.0676 71.6753C17.0716 70.9499 18.0265 70.3453 18.1896 70.3318C18.5409 70.3029 20.378 71.0042 20.7043 71.2921C20.8541 71.4239 21.063 72.2683 21.3164 73.7653L21.7009 76.0383L22.4838 76.2115C23.8403 76.5115 25.7001 76.6288 26.0222 76.4347C26.2373 76.305 26.5103 75.7353 27.0763 74.2337C27.5315 73.0264 27.9385 72.1364 28.0836 72.0315C28.392 71.8083 30.1174 71.4396 30.5328 71.508C30.7339 71.5412 31.3839 72.155 32.3444 73.2185C33.1682 74.131 33.9328 74.8923 34.0436 74.9107C34.2841 74.9501 37.7833 73.1296 37.9222 72.8926C37.9755 72.8015 37.8103 71.7123 37.5557 70.4723C37.3009 69.2321 37.1047 68.1442 37.1201 68.055C37.1701 67.7615 38.6582 66.3834 38.9439 66.3658C39.0976 66.3564 40.1452 66.611 41.272 66.9315C43.1365 67.4621 43.3449 67.4994 43.5895 67.3472C43.9268 67.1375 45.819 63.7575 45.759 63.4718C45.7346 63.3559 44.9871 62.521 44.0976 61.6164C43.1736 60.6769 42.4698 59.8513 42.456 59.6907C42.4425 59.5361 42.5409 59.0353 42.6749 58.5775L42.9179 57.7451L45.1625 57.0388C46.3971 56.6505 47.4525 56.2434 47.5082 56.1345C47.6276 55.901 47.4157 51.7113 47.2746 51.5164C47.2217 51.4429 46.1849 51.1551 44.9709 50.877C43.7571 50.5989 42.6952 50.3364 42.6111 50.2937C42.3601 50.1667 41.866 48.8575 41.9252 48.4762C41.9584 48.2629 42.5463 47.4497 43.4022 46.4332C44.1844 45.5043 44.8344 44.6846 44.8468 44.6116C44.8919 44.3478 42.339 40.7711 42.0749 40.7275C41.9314 40.7038 40.8811 41.0151 39.7409 41.4189C38.6003 41.8229 37.5468 42.1335 37.3998 42.1094C37.0587 42.0532 36.0955 41.2621 35.9949 40.9556C35.9528 40.8273 36.0398 39.7132 36.1885 38.4802C36.3628 37.033 36.4117 36.1778 36.3263 36.0676C36.2155 35.9243 32.4085 34.264 32.2006 34.2681C32.1633 34.2689 32.056 34.2867 31.9625 34.3078ZM30.9112 43.4575C34.0222 44.8524 36.5055 47.5067 37.7195 50.7348C39.8876 56.4994 37.3249 63.2353 31.8806 66.0815C29.4904 67.3313 27.0496 67.7969 24.4388 67.5015C18.5634 66.8369 14.0623 62.4018 13.2307 56.458C13.0741 55.3388 13.0893 55.0767 13.4336 52.9562C13.7796 50.8256 13.8451 50.5848 14.3606 49.5448C16.4869 45.2554 20.7676 42.5081 25.547 42.3656C26.9116 42.3251 29.6109 42.8743 30.9112 43.4575Z" stroke="black" stroke-width="0.27027"/>
<g id="Mask group">
<mask id="mask0_3282_41614" style="mask-type:alpha" maskUnits="userSpaceOnUse" x="1" y="0" width="100" height="101">
<g id="Group">
<path id="Vector_5" d="M51.317 100.8C78.7358 100.8 100.963 78.4141 100.963 50.8C100.963 23.1858 78.7358 0.80011 51.317 0.80011C23.8982 0.80011 1.6709 23.1858 1.6709 50.8C1.6709 78.4141 23.8982 100.8 51.317 100.8Z" fill="#ECE7FF"/>
</g>
</mask>
<g mask="url(#mask0_3282_41614)">
<g id="Group_2">
<path id="Vector_6" fill-rule="evenodd" clip-rule="evenodd" d="M77.0339 2.02996C76.9077 2.05199 75.9098 3.13906 74.8166 4.44531C73.3798 6.16214 72.7198 6.82436 72.4355 6.83425C72.2193 6.84179 71.5839 6.72522 71.0239 6.57538L70.0055 6.30287L68.7696 3.41198C68.0898 1.82202 67.4069 0.467512 67.2523 0.40192C66.8477 0.230534 61.7377 0.811981 61.3255 1.07637C61.0085 1.27967 60.9488 1.544 60.6155 4.21074C60.4155 5.81247 60.1915 7.23244 60.1177 7.36619C60.0442 7.5 59.3985 7.84638 58.6831 8.13584L57.3828 8.66211L54.6956 6.85082C53.2177 5.85466 51.8823 5.05939 51.7277 5.08352C51.3104 5.14893 47.2348 8.51284 47.1637 8.85084C47.1302 9.01092 47.6707 10.3342 48.3653 11.7913C49.0599 13.2485 49.5931 14.6074 49.5502 14.8111C49.4564 15.2574 48.2091 17.1473 47.8475 17.3912C47.7058 17.4867 46.2118 17.5188 44.5267 17.4626C42.8418 17.4064 41.3469 17.4349 41.2045 17.5259C41.0618 17.617 40.6137 18.6788 40.2083 19.8855C39.0156 23.4344 38.8218 22.8647 41.8656 24.754C43.3042 25.6468 44.5659 26.4945 44.6694 26.6376C44.7732 26.7808 44.828 27.684 44.7915 28.6446L44.7253 30.3914L41.964 32.0692C40.4451 32.9919 39.1837 33.8357 39.161 33.9441C39.074 34.3579 40.5169 39.2508 40.7688 39.3965C40.9148 39.4806 42.3088 39.5333 43.8669 39.5138C45.425 39.4938 46.8288 39.5052 46.9869 39.5389C47.3358 39.6133 48.7129 41.5584 49.0237 42.4157L49.248 43.0349L47.9234 45.7349C47.1948 47.2197 46.6207 48.5705 46.6477 48.7365C46.6994 49.0554 50.398 52.4065 50.7912 52.4903C50.9175 52.5173 52.1529 51.7986 53.5361 50.8932C54.9193 49.9881 56.2296 49.2411 56.448 49.2332C56.918 49.2165 59.3237 50.2668 59.7409 50.6708C59.9326 50.8562 60.1588 51.9957 60.4042 54.0086L60.7766 57.0648L61.8093 57.3446C63.5993 57.8294 66.0715 58.1019 66.5128 57.8629C66.8077 57.7035 67.2069 56.9602 68.0542 54.9921C68.7355 53.4097 69.3331 52.2478 69.5331 52.1167C69.9579 51.8381 72.2806 51.4538 72.8306 51.5708C73.0963 51.6276 73.925 52.487 75.1398 53.9657C76.182 55.2343 77.1541 56.2978 77.3006 56.3289C77.619 56.3967 82.3963 54.1857 82.596 53.8781C82.6725 53.76 82.5198 52.2967 82.2568 50.6262C81.9936 48.9559 81.7995 47.4924 81.8255 47.3741C81.9104 46.986 83.9793 45.24 84.3612 45.2343C84.5666 45.2311 85.9474 45.636 87.4301 46.1338C89.883 46.9576 90.1584 47.0203 90.4938 46.8327C90.9565 46.5738 93.6876 42.1822 93.6255 41.7976C93.6001 41.6414 92.6549 40.4808 91.5249 39.2187C90.3514 37.9079 89.4638 36.7622 89.4555 36.5473C89.4471 36.3403 89.6092 35.6781 89.816 35.0757L90.1917 33.9806L93.2273 33.1782C94.8973 32.7368 96.3295 32.2595 96.4106 32.1176C96.5841 31.8136 96.5603 26.2106 96.3844 25.9418C96.3181 25.8405 94.9538 25.392 93.3528 24.9454C91.7514 24.4987 90.3519 24.0824 90.2428 24.0203C89.916 23.8351 89.3382 22.0579 89.4406 21.5528C89.4979 21.2702 90.3319 20.2218 91.5357 18.919C92.6357 17.7285 93.553 16.6754 93.5741 16.5788C93.6503 16.2297 90.4682 11.2988 90.1184 11.2243C89.929 11.1839 88.5095 11.5336 86.9641 12.0015C85.419 12.4694 83.9955 12.8183 83.8009 12.7769C83.3495 12.6807 82.1144 11.5654 81.999 11.1501C81.9509 10.9762 82.1358 9.49554 82.4101 7.85979C82.7317 5.93987 82.8498 4.8019 82.7425 4.64931C82.6039 4.45158 77.6312 1.99948 77.3539 1.99199C77.3041 1.99063 77.1601 2.00776 77.0339 2.02996ZM75.0674 14.1714C79.1287 16.2261 82.2752 19.9218 83.6944 24.3042C86.2287 32.13 82.3963 40.9568 74.9625 44.4151C71.6988 45.9335 68.4161 46.403 64.9536 45.8462C57.162 44.5938 51.4353 38.3965 50.6937 30.4152C50.5542 28.9122 50.5904 28.5636 51.1807 25.7556C51.7734 22.9348 51.8756 22.6177 52.6272 21.2622C55.7266 15.672 61.6031 12.2732 67.9834 12.3807C69.8052 12.4116 73.3698 13.3125 75.0674 14.1714Z" fill="#106F6E"/>
</g>
</g>
</g>
</g>
<defs>
<clipPath id="clip0_3282_41614">
<rect width="100.27" height="99.9997" fill="white" transform="translate(0.865234 0.80011)"/>
</clipPath>
</defs>
</svg>
