<svg width="100" height="101" viewBox="0 0 100 101" fill="none" xmlns="http://www.w3.org/2000/svg">
<g id="01JC1N6NZPWCPPZR5QSY6DA3VJ" clip-path="url(#clip0_3282_41589)">
<path id="Vector" d="M50 100.8C77.6142 100.8 100 78.4142 100 50.8C100 23.1858 77.6142 0.799988 50 0.799988C22.3858 0.799988 0 23.1858 0 50.8C0 78.4142 22.3858 100.8 50 100.8Z" fill="#2C3B46" fill-opacity="0.12"/>
<path id="Vector_2" d="M81.351 12.9621H18.1078C15.8688 12.9621 14.0537 14.7772 14.0537 17.0162V89.9891C14.0537 92.2281 15.8688 94.0432 18.1078 94.0432H81.351C83.59 94.0432 85.4051 92.2281 85.4051 89.9891V17.0162C85.4051 14.7772 83.59 12.9621 81.351 12.9621Z" fill="white" stroke="#212E51" stroke-width="2.7027"/>
<path id="Vector_3" d="M48.784 17.2865C52.8888 17.2865 56.2164 13.9589 56.2164 9.85406C56.2164 5.74924 52.8888 2.42163 48.784 2.42163C44.6792 2.42163 41.3516 5.74924 41.3516 9.85406C41.3516 13.9589 44.6792 17.2865 48.784 17.2865Z" fill="#212E51"/>
<path id="Vector_4" d="M48.9188 10.5297C50.2622 10.5297 51.3512 9.44068 51.3512 8.09729C51.3512 6.75389 50.2622 5.66486 48.9188 5.66486C47.5754 5.66486 46.4863 6.75389 46.4863 8.09729C46.4863 9.44068 47.5754 10.5297 48.9188 10.5297Z" fill="#2C3B46" fill-opacity="0.12"/>
<path id="Vector_5" d="M60.2698 94.0433C60.2698 96.8128 49.4257 94.0433 37.033 94.0433C24.6403 94.0433 17.9724 94.0433 14.8643 94.0433C14.8643 81.2441 24.6403 69.3152 37.033 69.3152C49.4257 69.3152 60.2698 81.2441 60.2698 94.0433Z" fill="#212E51"/>
<path id="Vector_6" d="M24.5264 52.9346C24.5264 56.2517 25.8441 59.4327 28.1896 61.7784C30.535 64.1238 33.7164 65.4417 37.0334 65.4417C40.3504 65.4417 43.5318 64.1238 45.8772 61.7784C48.2229 59.4327 49.5404 56.2517 49.5404 52.9346C49.5404 49.6176 48.2229 46.4363 45.8772 44.0909C43.5318 41.7452 40.3504 40.4276 37.0334 40.4276C33.7164 40.4276 30.535 41.7452 28.1896 44.0909C25.8441 46.4363 24.5264 49.6176 24.5264 52.9346Z" fill="#212E51" stroke="#212E51" stroke-width="1.35135" stroke-linecap="round" stroke-linejoin="round"/>
<g id="Mask group">
<mask id="mask0_3282_41589" style="mask-type:alpha" maskUnits="userSpaceOnUse" x="15" y="14" width="70" height="79">
<g id="Group">
<path id="Vector_7" d="M81.3514 15.6649H18.1082C17.3619 15.6649 16.7568 16.2699 16.7568 17.0162V89.9892C16.7568 90.7355 17.3619 91.3405 18.1082 91.3405H81.3514C82.0978 91.3405 82.7028 90.7355 82.7028 89.9892V17.0162C82.7028 16.2699 82.0978 15.6649 81.3514 15.6649Z" fill="white" stroke="#004796" stroke-width="2.7027"/>
</g>
</mask>
<g mask="url(#mask0_3282_41589)">
<g id="Group_2">
<path id="Vector_8" fill-rule="evenodd" clip-rule="evenodd" d="M78.2071 5.0591C78.109 5.05913 77.2106 5.74775 76.2111 6.5891C74.8973 7.69489 74.3109 8.10754 74.0949 8.07767C73.9306 8.05494 73.4665 7.88365 73.0636 7.69713L72.3308 7.35792L71.783 5.01594C71.4817 3.72789 71.1465 2.61694 71.0384 2.54717C70.756 2.36483 66.8203 2.13226 66.4738 2.27748C66.2073 2.38913 66.1268 2.58058 65.52 4.54751C65.1554 5.72892 64.7971 6.77016 64.7236 6.86132C64.65 6.95254 64.1165 7.12894 63.5379 7.25327L62.486 7.47929L60.6984 5.76078C59.7152 4.81562 58.813 4.04065 58.693 4.03856C58.3692 4.03305 54.8436 6.03421 54.7449 6.27975C54.6981 6.39602 54.93 7.46481 55.2603 8.65459C55.5906 9.84451 55.8122 10.9391 55.7525 11.0871C55.6222 11.4113 54.4287 12.6724 54.1233 12.8089C54.0036 12.8622 52.8711 12.6902 51.6063 12.4266C50.3417 12.163 49.2092 11.9882 49.0895 12.0382C48.9698 12.0881 48.4898 12.8298 48.0227 13.6865C46.6495 16.2056 46.579 15.7506 48.6254 17.5748C49.5927 18.4369 50.4325 19.2418 50.4914 19.3632C50.5506 19.4848 50.4717 20.173 50.3163 20.8926L50.0333 22.2009L47.7249 23.1034C46.4552 23.5997 45.3903 24.0702 45.3587 24.1488C45.2379 24.4496 45.6754 28.3281 45.8463 28.4711C45.9452 28.5538 46.9909 28.7765 48.1698 28.9662C49.3487 29.1559 50.4073 29.3489 50.5222 29.3948C50.7754 29.4967 51.5563 31.1443 51.6765 31.8313L51.7636 32.3278L50.4036 34.1894C49.6557 35.2135 49.0422 36.1567 49.0403 36.2854C49.0368 36.5327 51.383 39.5448 51.6687 39.6597C51.7606 39.6965 52.789 39.317 53.9538 38.8159C55.119 38.3151 56.2079 37.9238 56.3738 37.9467C56.7309 37.9956 58.4073 39.1035 58.6687 39.4629C58.7884 39.6281 58.8076 40.5167 58.7246 42.0667L58.5984 44.42L59.3411 44.7667C60.6279 45.367 62.4582 45.8973 62.8233 45.7748C63.0671 45.6935 63.4676 45.1854 64.3695 43.8129C65.0949 42.7092 65.7009 41.9116 65.8695 41.8389C66.2273 41.6846 68.0325 41.6997 68.4319 41.8605C68.6252 41.9381 69.1363 42.6948 69.8565 43.9694C70.4741 45.0627 71.0665 45.9921 71.173 46.0348C71.4044 46.1278 75.306 45.0881 75.4976 44.8821C75.5714 44.8032 75.6511 43.68 75.6749 42.3859C75.699 41.0919 75.7473 39.9629 75.7827 39.8773C75.8984 39.5956 77.6933 38.5508 77.9825 38.5967C78.1379 38.6213 79.1265 39.1078 80.1795 39.6778C81.9219 40.6213 82.1214 40.7046 82.3998 40.607C82.7836 40.4729 85.4309 37.5202 85.4352 37.2219C85.4371 37.1008 84.8779 36.1019 84.193 35.0016C83.4814 33.8592 82.9641 32.8789 82.9863 32.7159C83.0076 32.5586 83.2184 32.0808 83.4546 31.6535L83.8841 30.877L86.2833 30.6708C87.603 30.5573 88.7479 30.3854 88.8281 30.2892C88.9995 30.0827 89.7282 25.855 89.6314 25.6292C89.5949 25.5441 88.6244 25.0268 87.4749 24.4799C86.3254 23.9328 85.3244 23.4351 85.25 23.374C85.0282 23.1914 84.8284 21.7755 84.9733 21.4082C85.0541 21.2026 85.8236 20.5216 86.906 19.6974C87.8954 18.9443 88.7284 18.2707 88.7571 18.2006C88.8611 17.9475 87.1154 13.8117 86.8614 13.7096C86.7235 13.6543 85.6052 13.7316 84.3763 13.8815C83.1471 14.0314 82.0257 14.1075 81.8844 14.0507C81.5565 13.9189 80.7725 12.9158 80.7408 12.5876C80.7276 12.4501 81.0644 11.358 81.4895 10.1606C81.9882 8.75529 82.229 7.91278 82.1684 7.78367C82.09 7.61635 78.6622 5.11456 78.4538 5.07248C78.4163 5.06494 78.3054 5.05894 78.2071 5.0591ZM75.1044 13.9553C77.8971 16.0379 79.7803 19.2375 80.2679 22.7282C81.1387 28.9616 77.069 35.1138 70.9952 36.7448C68.3284 37.4613 65.7873 37.384 63.2473 36.5097C57.5311 34.5424 54.033 29.1178 54.5368 23.0026C54.6317 21.851 54.7054 21.5928 55.5252 19.5532C56.3487 17.5042 56.4681 17.2785 57.2163 16.3551C60.3014 12.5472 65.1911 10.7562 69.9944 11.6751C71.3657 11.9375 73.9371 13.0849 75.1044 13.9553Z" fill="#106F6E"/>
<path id="Vector_9" fill-rule="evenodd" clip-rule="evenodd" d="M92.2058 45.0597C92.0958 45.0713 91.1712 45.947 90.1514 47.0051C88.8114 48.3962 88.2033 48.9264 87.9574 48.9186C87.7701 48.9127 87.2287 48.7756 86.7541 48.6148L85.8909 48.3219L84.9928 45.7683C84.4987 44.3637 83.9882 43.1613 83.8587 43.0962C83.5195 42.9256 79.0755 43.1294 78.7044 43.3324C78.4187 43.4886 78.3517 43.7121 77.9087 45.9827C77.6428 47.3462 77.3666 48.5524 77.2952 48.6629C77.2239 48.7737 76.6466 49.0337 76.0122 49.2408L74.8593 49.6175L72.6458 47.907C71.4282 46.9662 70.322 46.2062 70.1874 46.2181C69.8231 46.25 66.1095 48.9024 66.0285 49.1886C65.9901 49.324 66.3798 50.4916 66.8944 51.7827C67.4087 53.074 67.7898 54.2716 67.7409 54.444C67.6341 54.8219 66.4474 56.3721 66.1212 56.5608C65.9933 56.6346 64.7017 56.5756 63.2509 56.43C61.8001 56.2843 60.5082 56.2224 60.3798 56.2924C60.2514 56.3621 59.8028 57.2478 59.3825 58.2605C58.1466 61.2386 58.0122 60.7383 60.5293 62.5364C61.7187 63.3862 62.7585 64.187 62.8393 64.3159C62.9204 64.4448 62.9152 65.2235 62.8277 66.0462L62.6687 67.5421L60.1877 68.8229C58.8231 69.5273 57.6852 70.1789 57.6595 70.2705C57.5601 70.6208 58.5204 74.9051 58.7293 75.0448C58.8504 75.1254 60.0506 75.2513 61.3963 75.3246C62.7422 75.3978 63.9533 75.4886 64.0877 75.5267C64.3844 75.6108 65.4595 77.3605 65.6777 78.1143L65.8352 78.6592L64.5347 80.9005C63.8195 82.1335 63.2452 83.26 63.2587 83.404C63.2847 83.6808 66.2817 86.7719 66.616 86.8665C66.7236 86.897 67.8317 86.3513 69.0782 85.654C70.3247 84.957 71.499 84.3913 71.6879 84.3973C72.0947 84.41 74.1098 85.4508 74.4463 85.8219C74.6009 85.9921 74.7298 86.9837 74.8244 88.7262L74.9674 91.3716L75.8428 91.6716C77.3593 92.1913 79.4768 92.5681 79.8717 92.3886C80.1355 92.2686 80.5233 91.6538 81.3693 90.0129C82.0495 88.6935 82.6331 87.7305 82.8133 87.6297C83.1963 87.4151 85.2233 87.2192 85.6909 87.3516C85.9171 87.4156 86.5823 88.2016 87.5447 89.5413C88.3701 90.6908 89.1471 91.66 89.2717 91.6954C89.5425 91.7721 93.7944 90.15 93.9847 89.8973C94.0577 89.8002 94.0112 88.5351 93.8817 87.0856C93.7517 85.6362 93.6695 84.3686 93.6987 84.2686C93.7947 83.94 95.682 82.5608 96.012 82.5778C96.1895 82.587 97.3577 83.0146 98.6082 83.5278C100.677 84.377 100.911 84.4467 101.212 84.3048C101.626 84.1094 104.239 80.497 104.208 80.1629C104.195 80.0273 103.447 78.9765 102.545 77.8273C101.609 76.634 100.91 75.5992 100.915 75.414C100.92 75.2359 101.098 74.6767 101.312 74.1713L101.7 73.2527L104.367 72.7394C105.834 72.457 107.098 72.13 107.176 72.0129C107.343 71.7619 107.649 66.95 107.513 66.7089C107.462 66.6181 106.311 66.1543 104.955 65.6783C103.599 65.2021 102.415 64.7637 102.324 64.704C102.053 64.5262 101.658 62.9667 101.776 62.5392C101.842 62.2997 102.623 61.4478 103.738 60.3989C104.757 59.4405 105.61 58.5894 105.633 58.5075C105.72 58.2124 103.26 53.7946 102.963 53.7105C102.802 53.6648 101.556 53.8829 100.195 54.1954C98.8344 54.5078 97.5855 54.7248 97.4198 54.6781C97.036 54.5694 96.035 53.5405 95.9598 53.1773C95.9282 53.0251 96.1741 51.7646 96.506 50.3759C96.8958 48.7462 97.0639 47.7759 96.9804 47.6386C96.872 47.461 92.7233 45.0681 92.4844 45.0456C92.4414 45.0416 92.316 45.0478 92.2058 45.0597ZM89.8012 55.3702C93.1866 57.3694 95.6868 60.7243 96.6563 64.5692C98.3877 71.4348 94.5655 78.7919 87.9479 81.331C85.0428 82.4459 82.1822 82.6592 79.2263 81.981C72.5747 80.4551 67.9933 74.8032 67.8185 67.9075C67.7858 66.6092 67.8374 66.3119 68.5104 63.9351C69.1863 61.5475 69.2928 61.281 70.0206 60.1608C73.0214 55.5402 78.2912 52.9619 83.7917 53.4232C85.3622 53.5551 88.386 54.5348 89.8012 55.3702Z" fill="#048081" fill-opacity="0.28"/>
</g>
</g>
</g>
<path id="Vector_10" d="M63.784 10.5297H33.784C33.0376 10.5297 32.4326 11.1347 32.4326 11.8811V16.7459C32.4326 17.4923 33.0376 18.0973 33.784 18.0973H63.784C64.5303 18.0973 65.1353 17.4923 65.1353 16.7459V11.8811C65.1353 11.1347 64.5303 10.5297 63.784 10.5297Z" fill="#212E51"/>
</g>
<defs>
<clipPath id="clip0_3282_41589">
<rect width="100" height="100" fill="white" transform="translate(0 0.799988)"/>
</clipPath>
</defs>
</svg>
