<svg width="100" height="101" viewBox="0 0 100 101" fill="none" xmlns="http://www.w3.org/2000/svg">
<g id="01HZJGZSE1Z76S7TATRQX62Z5Q" clip-path="url(#clip0_3282_41564)">
<path id="Vector" d="M50 100.8C63.2608 100.8 75.9786 95.5322 85.3554 86.1554C94.7322 76.7786 100 64.0608 100 50.8C100 37.5392 94.7322 24.8214 85.3554 15.4446C75.9786 6.06783 63.2608 0.799987 50 0.799988C36.7392 0.799988 24.0214 6.06783 14.6447 15.4446C5.26784 24.8214 -5.7966e-07 37.5392 0 50.8C5.7964e-07 64.0608 5.26784 76.7786 14.6447 86.1554C24.0214 95.5322 36.7392 100.8 50 100.8Z" fill="#2C3B46" fill-opacity="0.12"/>
<path id="Vector_2" d="M90.4822 80.0702C90.4818 81.0594 90.0884 82.0082 89.3888 82.7076C88.689 83.407 87.7402 83.8 86.7508 83.8H13.3758C12.3865 83.8 11.4376 83.407 10.7379 82.7076C10.0382 82.0082 9.64491 81.0594 9.64453 80.0702V29.0798H90.4792L90.4822 80.0702Z" fill="white"/>
<path id="Vector_3" d="M86.7508 17.8875H13.3758C12.3862 17.8875 11.4372 18.2806 10.7374 18.9804C10.0377 19.6801 9.64453 20.6292 9.64453 21.6188V29.0798H90.4792V21.6188C90.4792 20.6297 90.0866 19.6811 89.3874 18.9814C88.6882 18.2817 87.74 17.8883 86.7508 17.8875Z" fill="#2C3B46" stroke="#00152B" stroke-linecap="round" stroke-linejoin="round"/>
<path id="Vector_4" d="M13.376 23.4844C13.376 23.7294 13.4242 23.972 13.518 24.1984C13.6118 24.4248 13.7492 24.6304 13.9224 24.8036C14.0957 24.9768 14.3013 25.1142 14.5277 25.208C14.754 25.3018 14.9966 25.35 15.2416 25.35C15.4866 25.35 15.7292 25.3018 15.9556 25.208C16.1819 25.1142 16.3876 24.9768 16.5608 24.8036C16.7341 24.6304 16.8715 24.4248 16.9652 24.1984C17.059 23.972 17.1073 23.7294 17.1073 23.4844C17.1073 23.2394 17.059 22.9968 16.9652 22.7704C16.8715 22.5442 16.7341 22.3384 16.5608 22.1652C16.3876 21.992 16.1819 21.8546 15.9556 21.7608C15.7292 21.667 15.4866 21.6188 15.2416 21.6188C14.9966 21.6188 14.754 21.667 14.5277 21.7608C14.3013 21.8546 14.0957 21.992 13.9224 22.1652C13.7492 22.3384 13.6118 22.5442 13.518 22.7704C13.4242 22.9968 13.376 23.2394 13.376 23.4844Z" fill="white" stroke="#00152B" stroke-linecap="round" stroke-linejoin="round"/>
<path id="Vector_5" d="M20.8369 23.4844C20.8369 23.9792 21.0333 24.4538 21.3833 24.8036C21.7331 25.1534 22.2077 25.35 22.7025 25.35C23.1973 25.35 23.6719 25.1534 24.0217 24.8036C24.3715 24.4538 24.5681 23.9792 24.5681 23.4844C24.5681 22.9896 24.3715 22.515 24.0217 22.1652C23.6719 21.8154 23.1973 21.6188 22.7025 21.6188C22.2077 21.6188 21.7331 21.8154 21.3833 22.1652C21.0333 22.515 20.8369 22.9896 20.8369 23.4844Z" fill="white" stroke="#00152B" stroke-linecap="round" stroke-linejoin="round"/>
<path id="Vector_6" d="M28.2998 23.4844C28.2998 23.9792 28.4962 24.4538 28.8462 24.8036C29.196 25.1534 29.6706 25.35 30.1654 25.35C30.6602 25.35 31.1346 25.1534 31.4846 24.8036C31.8344 24.4538 32.031 23.9792 32.031 23.4844C32.031 22.9896 31.8344 22.515 31.4846 22.1652C31.1346 21.8154 30.6602 21.6188 30.1654 21.6188C29.6706 21.6188 29.196 21.8154 28.8462 22.1652C28.4962 22.515 28.2998 22.9896 28.2998 23.4844Z" fill="white" stroke="#00152B" stroke-linecap="round" stroke-linejoin="round"/>
<path id="Vector_7" d="M90.4822 80.0702C90.4818 81.0594 90.0884 82.0082 89.3888 82.7076C88.689 83.407 87.7402 83.8 86.7508 83.8H13.3758C12.3865 83.8 11.4376 83.407 10.7379 82.7076C10.0382 82.0082 9.64491 81.0594 9.64453 80.0702V29.0798H90.4792L90.4822 80.0702Z" stroke="#00152B" stroke-linecap="round" stroke-linejoin="round"/>
<path id="Vector_8" d="M18.3506 73.5404H80.5332" stroke="#00152B" stroke-linecap="round" stroke-linejoin="round"/>
<path id="Vector_9" d="M39.4917 75.9841C39.4997 76.3159 39.4413 76.6457 39.3199 76.9545C39.1985 77.2631 39.0165 77.5445 38.7847 77.7819C38.5531 78.0193 38.2761 78.2079 37.9703 78.3367C37.6647 78.4655 37.3363 78.5319 37.0045 78.5319C36.6727 78.5319 36.3443 78.4655 36.0387 78.3367C35.7329 78.2079 35.4561 78.0193 35.2243 77.7819C34.9925 77.5445 34.8105 77.2631 34.6891 76.9545C34.5677 76.6457 34.5093 76.3159 34.5173 75.9841V71.0097C34.5329 70.3603 34.8017 69.7427 35.2665 69.2891C35.7313 68.8353 36.3549 68.5813 37.0045 68.5813C37.6541 68.5813 38.2779 68.8353 38.7425 69.2891C39.2073 69.7427 39.4763 70.3603 39.4917 71.0097V75.9841Z" fill="#2C3B46" stroke="#00152B" stroke-linecap="round" stroke-linejoin="round"/>
<path id="Vector_10" d="M59.2859 52.7323C59.4795 52.6207 59.6405 52.4599 59.7523 52.2663C59.8641 52.0727 59.9231 51.8529 59.9231 51.6293C59.9231 51.4057 59.8641 51.1861 59.7523 50.9923C59.6405 50.7987 59.4795 50.6379 59.2859 50.5263L45.7713 42.7175C45.5777 42.6057 45.3581 42.5469 45.1347 42.5469C44.9111 42.5469 44.6915 42.6057 44.4979 42.7175C44.3043 42.8293 44.1435 42.9901 44.0319 43.1837C43.9201 43.3773 43.8613 43.5969 43.8613 43.8205V59.4309C43.8613 59.6545 43.9201 59.8741 44.0319 60.0677C44.1435 60.2613 44.3043 60.4221 44.4979 60.5339C44.6915 60.6457 44.9111 60.7045 45.1347 60.7047C45.3581 60.7047 45.5777 60.6457 45.7713 60.5341L59.2859 52.7323Z" fill="#2C3B46"/>
<path id="Vector_11" d="M59.2859 52.7323C59.4795 52.6207 59.6405 52.4599 59.7523 52.2663C59.8641 52.0727 59.9231 51.8529 59.9231 51.6293C59.9231 51.4057 59.8641 51.1861 59.7523 50.9923C59.6405 50.7987 59.4795 50.6379 59.2859 50.5263L45.7713 42.7175C45.5777 42.6057 45.3581 42.5469 45.1347 42.5469C44.9111 42.5469 44.6915 42.6057 44.4979 42.7175C44.3043 42.8293 44.1435 42.9901 44.0319 43.1837C43.9201 43.3773 43.8613 43.5969 43.8613 43.8205V59.4309C43.8613 59.6545 43.9201 59.8741 44.0319 60.0677C44.1435 60.2613 44.3043 60.4221 44.4979 60.5339C44.6915 60.6457 44.9111 60.7045 45.1347 60.7047C45.3581 60.7047 45.5777 60.6457 45.7713 60.5341L59.2859 52.7323Z" stroke="#00152B" stroke-linecap="round" stroke-linejoin="round"/>
</g>
<defs>
<clipPath id="clip0_3282_41564">
<rect width="100" height="100" fill="white" transform="translate(0 0.799988)"/>
</clipPath>
</defs>
</svg>
