<svg width="42" height="26" viewBox="0 0 42 26" fill="none" xmlns="http://www.w3.org/2000/svg">
<g id="container">
<g id="container_2">
<path id="Vector" d="M37.3573 0.200012L34.2247 3.3326V7.66037H39.1978V21.7729H25.7449V7.66037H27.702L30.1893 5.17307V1.13009L31.1186 0.200012H30.7149L27.7012 3.21218V5.17307H25.7441L23.2568 7.66037V21.7729L25.7441 24.2602H41.6843V0.200012H37.3565H37.3573ZM36.712 2.54718H39.1993V5.17762H36.712V2.54718Z" fill="#212E51"/>
<path id="Vector_2" d="M24.3679 2.42221C24.0642 2.42221 23.8029 2.31315 23.5848 2.09426C23.3659 1.87613 23.2568 1.61482 23.2568 1.31111C23.2568 1.00739 23.3651 0.741544 23.5818 0.524929C23.7984 0.308314 24.0604 0.200012 24.3679 0.200012C24.6754 0.200012 24.9375 0.308314 25.1541 0.524929C25.3707 0.741544 25.479 1.0036 25.479 1.31111C25.479 1.61861 25.3707 1.88067 25.1541 2.09728C24.9375 2.3139 24.6754 2.42221 24.3679 2.42221ZM23.6431 2.03594C23.8446 2.23741 24.0862 2.33814 24.3679 2.33814C24.6497 2.33814 24.8905 2.23741 25.0928 2.03594C25.2942 1.83447 25.3957 1.5921 25.3957 1.31111C25.3957 1.03011 25.295 0.78775 25.0928 0.586283C24.8905 0.384815 24.6489 0.284082 24.3679 0.284082C24.0869 0.284082 23.8446 0.384815 23.6431 0.586283C23.4409 0.788507 23.3402 1.03011 23.3402 1.31111C23.3402 1.5921 23.4409 1.83447 23.6431 2.03594ZM24.6906 1.97231H24.9572L24.5853 1.42775C24.7853 1.38685 24.8852 1.26339 24.8852 1.05586C24.8852 0.785474 24.7239 0.650659 24.402 0.650659H23.8968V1.97231H24.1415V1.46107H24.3414L24.6913 1.97231H24.6906ZM24.1347 1.26113V0.849855H24.3793C24.5497 0.849855 24.6345 0.918776 24.6345 1.05586C24.6345 1.20053 24.5497 1.2687 24.3793 1.26113H24.1347Z" fill="#212E51"/>
</g>
<g id="container_3">
<g id="container_4">
<path id="Vector_3" d="M8.12582 10.9029V12.6168C8.12582 12.688 8.0781 12.7479 8.00691 12.7479C7.31692 12.7479 6.70949 12.4979 6.23385 12.0336C5.75744 12.5093 5.00838 12.7479 3.9965 12.7479H1.33046L1.04492 10.7839H4.01997C4.68648 10.7839 5.00762 10.4151 5.00762 9.8675V9.48652C4.9955 8.85561 4.47214 8.42769 3.7102 8.42769H2.9013V6.52359H4.13889C5.75744 6.52359 6.87612 7.49911 6.87612 9.32065V10.2492C6.87612 10.3325 6.87612 10.4158 6.864 10.4992C7.18513 10.6779 7.54263 10.7847 8.00615 10.7847C8.07735 10.7847 8.12506 10.8324 8.12506 10.9036L8.12582 10.9029Z" fill="#212E51"/>
<path id="Vector_4" d="M12.7322 10.9029V12.6169C12.7322 12.6881 12.6845 12.7479 12.6133 12.7479C11.9824 12.7479 11.3045 12.4268 10.7448 11.8557C10.1972 12.451 9.25729 12.7479 8.00758 12.7479C7.93639 12.7479 7.88867 12.6881 7.88867 12.6169L7.91215 10.9029C7.91215 10.8317 7.95987 10.784 8.03106 10.784C8.95963 10.784 9.45951 10.4273 9.45951 9.56988L9.44739 8.14143L11.3038 7.92709V10.4023C11.6969 10.6522 12.149 10.7832 12.6126 10.7832C12.6837 10.7832 12.7315 10.8309 12.7315 10.9021L12.7322 10.9029ZM11.1614 13.3546L12.4111 14.5801L11.1856 15.8055L10.3169 14.9603L9.47163 15.8055L8.22193 14.5801L9.44739 13.3546L10.3161 14.1998L11.1614 13.3546Z" fill="#212E51"/>
<path id="Vector_5" d="M18.754 9.49861C18.754 11.4739 17.4452 12.7478 15.3503 12.7478H12.6131C12.5297 12.7478 12.4941 12.7122 12.4941 12.6168V10.9028C12.4941 10.8316 12.5419 10.7839 12.6131 10.7839H13.3508C13.1243 10.3075 12.994 9.85534 12.994 9.39182C12.994 7.77326 14.2195 6.61899 15.8146 6.61899C17.5164 6.61899 18.754 7.83309 18.754 9.49936V9.49861ZM14.8269 5.83357L13.5893 4.59598L14.8148 3.37051L15.7547 4.28696L16.6833 3.37051L17.9209 4.59598L16.7068 5.83357L15.7547 4.905L14.8262 5.83357H14.8269ZM16.8976 9.48649C16.8976 8.85558 16.4212 8.39129 15.7911 8.39129C15.1609 8.39129 14.6489 8.90329 14.6489 9.55768C14.6489 9.93865 14.7678 10.3431 14.9822 10.7832H15.3632C16.3273 10.7832 16.8984 10.2712 16.8984 9.48573L16.8976 9.48649Z" fill="#212E51"/>
</g>
<g id="container_5">
<path id="Vector_6" d="M5.34995 25.7948L4.40321 24.3398C4.33656 24.3527 4.26385 24.3633 4.18432 24.3694C4.10479 24.3762 4.01845 24.3792 3.92529 24.3792C3.1944 24.3792 2.61045 24.2565 2.17192 24.0103C1.73339 23.765 1.41604 23.3847 1.22063 22.8697C1.02446 22.3554 0.926758 21.6988 0.926758 20.902C0.926758 20.1052 1.02446 19.4372 1.22063 18.9191C1.41679 18.4011 1.73339 18.0163 2.17192 17.7633C2.61045 17.5111 3.1944 17.3846 3.92529 17.3846C4.65618 17.3846 5.25225 17.5111 5.69381 17.7633C6.13537 18.0156 6.45424 18.4011 6.6504 18.9191C6.84657 19.4372 6.94427 20.0984 6.94427 20.902C6.94427 21.6329 6.86626 22.2418 6.71024 22.7303C6.55421 23.2189 6.29367 23.5923 5.92785 23.8513L6.74508 25.1063L5.34995 25.794V25.7948ZM3.92529 22.9257C4.27066 22.9257 4.53121 22.8493 4.70768 22.6963C4.8834 22.5433 5.00155 22.3161 5.06139 22.0139C5.12122 21.7116 5.15076 21.3413 5.15076 20.9027C5.15076 20.4642 5.12122 20.0923 5.06139 19.7871C5.00155 19.4819 4.88567 19.2493 4.71298 19.0895C4.5403 18.9305 4.27824 18.8502 3.92605 18.8502C3.57386 18.8502 3.32998 18.9297 3.1535 19.0895C2.97779 19.2486 2.85585 19.4796 2.78995 19.7818C2.7233 20.084 2.68998 20.4574 2.68998 20.9027C2.68998 21.3481 2.72179 21.7101 2.78465 22.0085C2.84752 22.3077 2.9687 22.5349 3.1482 22.691C3.3277 22.847 3.58673 22.925 3.92529 22.925V22.9257Z" fill="#212E51"/>
<path id="Vector_7" d="M8.93615 24.2604V21.889L6.93359 17.515H8.83693L9.83291 19.916L10.8592 17.515H12.7519L10.7092 21.889V24.2604H8.93539H8.93615Z" fill="#212E51"/>
<path id="Vector_8" d="M13.1707 24.2604V17.515H15.861C16.4123 17.515 16.8804 17.5847 17.2659 17.7241C17.6507 17.8634 17.962 18.0709 18.1975 18.3466C18.4331 18.6223 18.6042 18.9647 18.7103 19.3729C18.8163 19.7811 18.8693 20.2515 18.8693 20.7824C18.8693 21.3134 18.8193 21.8019 18.7201 22.2268C18.6201 22.6517 18.4573 23.0175 18.2316 23.3227C18.0059 23.628 17.7037 23.8605 17.325 24.0203C16.9463 24.1793 16.4813 24.2596 15.9299 24.2596H13.1699L13.1707 24.2604ZM14.9437 22.7963H15.8004C16.0791 22.7963 16.3033 22.7464 16.4729 22.6471C16.6426 22.5472 16.7698 22.4078 16.8562 22.2283C16.9425 22.0488 16.9986 21.8367 17.0258 21.5906C17.0523 21.3452 17.066 21.0763 17.066 20.7839C17.066 20.4916 17.0493 20.2545 17.016 20.0318C16.9827 19.8092 16.9228 19.6183 16.8365 19.4592C16.7501 19.3002 16.6236 19.1805 16.4578 19.1002C16.2919 19.0207 16.0723 18.9806 15.8004 18.9806H14.9437V22.7963Z" fill="#212E51"/>
</g>
</g>
</g>
</svg>
