<svg width="1188" height="601" viewBox="0 0 1188 601" fill="none" xmlns="http://www.w3.org/2000/svg">
<g clip-path="url(#clip0_3249_41396)">
<mask id="mask0_3249_41396" style="mask-type:alpha" maskUnits="userSpaceOnUse" x="-1" y="0" width="1190" height="601">
<rect width="1189" height="600" transform="matrix(-1 0 0 1 1188.5 0.600098)" fill="url(#paint0_linear_3249_41396)"/>
</mask>
<g mask="url(#mask0_3249_41396)">
</g>
<g clip-path="url(#clip1_3249_41396)">
<path d="M1188.5 509.987C644.044 495.633 153.707 303.524 -203.5 0.600098V600.6H1188.5V509.987Z" fill="url(#paint1_linear_3249_41396)"/>
</g>
<mask id="mask1_3249_41396" style="mask-type:alpha" maskUnits="userSpaceOnUse" x="1068" y="0" width="2" height="601">
<rect width="1" height="600" transform="matrix(-1 0 0 1 1069.67 0.600098)" fill="url(#paint2_linear_3249_41396)"/>
</mask>
<g mask="url(#mask1_3249_41396)">
<path d="M1069.17 0.600098V600.6" stroke="#E4E7EC" stroke-width="2" stroke-linecap="round" stroke-dasharray="4 6"/>
</g>
<mask id="mask2_3249_41396" style="mask-type:alpha" maskUnits="userSpaceOnUse" x="997" y="0" width="2" height="601">
<rect width="1" height="600" transform="matrix(-1 0 0 1 998.392 0.600098)" fill="url(#paint3_linear_3249_41396)"/>
</mask>
<g mask="url(#mask2_3249_41396)">
<path d="M997.892 0.600098V600.6" stroke="#E4E7EC" stroke-width="2" stroke-linecap="round" stroke-dasharray="4 6"/>
</g>
<mask id="mask3_3249_41396" style="mask-type:alpha" maskUnits="userSpaceOnUse" x="926" y="0" width="2" height="601">
<rect width="1" height="600" transform="matrix(-1 0 0 1 927.114 0.600098)" fill="url(#paint4_linear_3249_41396)"/>
</mask>
<g mask="url(#mask3_3249_41396)">
<path d="M926.614 0.600098V600.6" stroke="#E4E7EC" stroke-width="2" stroke-linecap="round" stroke-dasharray="4 6"/>
</g>
<mask id="mask4_3249_41396" style="mask-type:alpha" maskUnits="userSpaceOnUse" x="854" y="0" width="2" height="601">
<rect width="1" height="600" transform="matrix(-1 0 0 1 855.836 0.600098)" fill="url(#paint5_linear_3249_41396)"/>
</mask>
<g mask="url(#mask4_3249_41396)">
<path d="M855.336 0.600098V600.6" stroke="#E4E7EC" stroke-width="2" stroke-linecap="round" stroke-dasharray="4 6"/>
</g>
<mask id="mask5_3249_41396" style="mask-type:alpha" maskUnits="userSpaceOnUse" x="783" y="0" width="2" height="601">
<rect width="1" height="600" transform="matrix(-1 0 0 1 784.558 0.600098)" fill="url(#paint6_linear_3249_41396)"/>
</mask>
<g mask="url(#mask5_3249_41396)">
<path d="M784.058 0.600098V600.6" stroke="#E4E7EC" stroke-width="2" stroke-linecap="round" stroke-dasharray="4 6"/>
</g>
<mask id="mask6_3249_41396" style="mask-type:alpha" maskUnits="userSpaceOnUse" x="712" y="0" width="2" height="601">
<rect width="1" height="600" transform="matrix(-1 0 0 1 713.28 0.600098)" fill="url(#paint7_linear_3249_41396)"/>
</mask>
<g mask="url(#mask6_3249_41396)">
<path d="M712.78 0.600098V600.6" stroke="#E4E7EC" stroke-width="2" stroke-linecap="round" stroke-dasharray="4 6"/>
</g>
<mask id="mask7_3249_41396" style="mask-type:alpha" maskUnits="userSpaceOnUse" x="641" y="0" width="2" height="601">
<rect width="1" height="600" transform="matrix(-1 0 0 1 642.002 0.600098)" fill="url(#paint8_linear_3249_41396)"/>
</mask>
<g mask="url(#mask7_3249_41396)">
<path d="M641.502 0.600098V600.6" stroke="#E4E7EC" stroke-width="2" stroke-linecap="round" stroke-dasharray="4 6"/>
</g>
<mask id="mask8_3249_41396" style="mask-type:alpha" maskUnits="userSpaceOnUse" x="569" y="0" width="2" height="601">
<rect width="1" height="600" transform="matrix(-1 0 0 1 570.724 0.600098)" fill="url(#paint9_linear_3249_41396)"/>
</mask>
<g mask="url(#mask8_3249_41396)">
<path d="M570.224 0.600098V600.6" stroke="#E4E7EC" stroke-width="2" stroke-linecap="round" stroke-dasharray="4 6"/>
</g>
<mask id="mask9_3249_41396" style="mask-type:alpha" maskUnits="userSpaceOnUse" x="498" y="0" width="2" height="601">
<rect width="1" height="600" transform="matrix(-1 0 0 1 499.446 0.600098)" fill="url(#paint10_linear_3249_41396)"/>
</mask>
<g mask="url(#mask9_3249_41396)">
<path d="M498.946 0.600098V600.6" stroke="#E4E7EC" stroke-width="2" stroke-linecap="round" stroke-dasharray="4 6"/>
</g>
<mask id="mask10_3249_41396" style="mask-type:alpha" maskUnits="userSpaceOnUse" x="427" y="0" width="2" height="601">
<rect width="1" height="600" transform="matrix(-1 0 0 1 428.168 0.600098)" fill="url(#paint11_linear_3249_41396)"/>
</mask>
<g mask="url(#mask10_3249_41396)">
<path d="M427.668 0.600098V600.6" stroke="#E4E7EC" stroke-width="2" stroke-linecap="round" stroke-dasharray="4 6"/>
</g>
<mask id="mask11_3249_41396" style="mask-type:alpha" maskUnits="userSpaceOnUse" x="355" y="0" width="2" height="601">
<rect width="1" height="600" transform="matrix(-1 0 0 1 356.89 0.600098)" fill="url(#paint12_linear_3249_41396)"/>
</mask>
<g mask="url(#mask11_3249_41396)">
<path d="M356.39 0.600098V600.6" stroke="#E4E7EC" stroke-width="2" stroke-linecap="round" stroke-dasharray="4 6"/>
</g>
<mask id="mask12_3249_41396" style="mask-type:alpha" maskUnits="userSpaceOnUse" x="284" y="0" width="2" height="601">
<rect width="1" height="600" transform="matrix(-1 0 0 1 285.612 0.600098)" fill="url(#paint13_linear_3249_41396)"/>
</mask>
<g mask="url(#mask12_3249_41396)">
<path d="M285.112 0.600098V600.6" stroke="#E4E7EC" stroke-width="2" stroke-linecap="round" stroke-dasharray="4 6"/>
</g>
<mask id="mask13_3249_41396" style="mask-type:alpha" maskUnits="userSpaceOnUse" x="213" y="0" width="2" height="601">
<rect width="1" height="600" transform="matrix(-1 0 0 1 214.334 0.600098)" fill="url(#paint14_linear_3249_41396)"/>
</mask>
<g mask="url(#mask13_3249_41396)">
<path d="M213.834 0.600098V600.6" stroke="#E4E7EC" stroke-width="2" stroke-linecap="round" stroke-dasharray="4 6"/>
</g>
<mask id="mask14_3249_41396" style="mask-type:alpha" maskUnits="userSpaceOnUse" x="142" y="0" width="2" height="601">
<rect width="1" height="600" transform="matrix(-1 0 0 1 143.056 0.600098)" fill="url(#paint15_linear_3249_41396)"/>
</mask>
<g mask="url(#mask14_3249_41396)">
<path d="M142.556 0.600098V600.6" stroke="#E4E7EC" stroke-width="2" stroke-linecap="round" stroke-dasharray="4 6"/>
</g>
<mask id="mask15_3249_41396" style="mask-type:alpha" maskUnits="userSpaceOnUse" x="70" y="0" width="2" height="601">
<rect width="1" height="600" transform="matrix(-1 0 0 1 71.7773 0.600098)" fill="url(#paint16_linear_3249_41396)"/>
</mask>
<g mask="url(#mask15_3249_41396)">
<path d="M71.2773 0.600098V600.6" stroke="#E4E7EC" stroke-width="2" stroke-linecap="round" stroke-dasharray="4 6"/>
</g>
<g clip-path="url(#clip2_3249_41396)">
<path d="M1188.5 509.987C644.044 495.633 153.707 303.523 -203.5 0.600098H1188.5V509.987Z" fill="white"/>
</g>
<mask id="mask16_3249_41396" style="mask-type:alpha" maskUnits="userSpaceOnUse" x="-1" y="0" width="1190" height="601">
<rect width="1189" height="600" transform="matrix(-1 0 0 1 1188.5 0.600098)" fill="url(#paint17_linear_3249_41396)"/>
</mask>
<g mask="url(#mask16_3249_41396)">
</g>
<g clip-path="url(#clip3_3249_41396)">
<path d="M-203.5 1.6001C153.707 303.523 643.05 495.633 1187.51 509.987" stroke="#048081" stroke-opacity="0.28" stroke-width="0.997139" stroke-linecap="round"/>
</g>
</g>
<defs>
<linearGradient id="paint0_linear_3249_41396" x1="0" y1="300" x2="1189" y2="300" gradientUnits="userSpaceOnUse">
<stop offset="0.5"/>
<stop offset="0.5" stop-opacity="0"/>
</linearGradient>
<linearGradient id="paint1_linear_3249_41396" x1="1188.5" y1="0.600098" x2="1188.5" y2="600.6" gradientUnits="userSpaceOnUse">
<stop stop-color="#FAFAFB"/>
<stop offset="0.5" stop-color="#FAFAFB"/>
<stop offset="1" stop-color="#FAFAFB" stop-opacity="0"/>
</linearGradient>
<linearGradient id="paint2_linear_3249_41396" x1="0.500035" y1="0" x2="0.500035" y2="600" gradientUnits="userSpaceOnUse">
<stop offset="0.5"/>
<stop offset="0.5" stop-opacity="0"/>
</linearGradient>
<linearGradient id="paint3_linear_3249_41396" x1="0.500035" y1="0" x2="0.500035" y2="600" gradientUnits="userSpaceOnUse">
<stop offset="0.5"/>
<stop offset="0.5" stop-opacity="0"/>
</linearGradient>
<linearGradient id="paint4_linear_3249_41396" x1="0.500035" y1="0" x2="0.500035" y2="600" gradientUnits="userSpaceOnUse">
<stop offset="0.5"/>
<stop offset="0.5" stop-opacity="0"/>
</linearGradient>
<linearGradient id="paint5_linear_3249_41396" x1="0.500035" y1="0" x2="0.500035" y2="600" gradientUnits="userSpaceOnUse">
<stop offset="0.5"/>
<stop offset="0.5" stop-opacity="0"/>
</linearGradient>
<linearGradient id="paint6_linear_3249_41396" x1="0.500035" y1="0" x2="0.500035" y2="600" gradientUnits="userSpaceOnUse">
<stop offset="0.5"/>
<stop offset="0.5" stop-opacity="0"/>
</linearGradient>
<linearGradient id="paint7_linear_3249_41396" x1="0.500035" y1="0" x2="0.500035" y2="600" gradientUnits="userSpaceOnUse">
<stop offset="0.5"/>
<stop offset="0.5" stop-opacity="0"/>
</linearGradient>
<linearGradient id="paint8_linear_3249_41396" x1="0.500035" y1="0" x2="0.500035" y2="600" gradientUnits="userSpaceOnUse">
<stop offset="0.5"/>
<stop offset="0.5" stop-opacity="0"/>
</linearGradient>
<linearGradient id="paint9_linear_3249_41396" x1="0.500035" y1="0" x2="0.500035" y2="600" gradientUnits="userSpaceOnUse">
<stop offset="0.5"/>
<stop offset="0.5" stop-opacity="0"/>
</linearGradient>
<linearGradient id="paint10_linear_3249_41396" x1="0.500035" y1="0" x2="0.500035" y2="600" gradientUnits="userSpaceOnUse">
<stop offset="0.5"/>
<stop offset="0.5" stop-opacity="0"/>
</linearGradient>
<linearGradient id="paint11_linear_3249_41396" x1="0.500035" y1="0" x2="0.500035" y2="600" gradientUnits="userSpaceOnUse">
<stop offset="0.5"/>
<stop offset="0.5" stop-opacity="0"/>
</linearGradient>
<linearGradient id="paint12_linear_3249_41396" x1="0.500035" y1="0" x2="0.500035" y2="600" gradientUnits="userSpaceOnUse">
<stop offset="0.5"/>
<stop offset="0.5" stop-opacity="0"/>
</linearGradient>
<linearGradient id="paint13_linear_3249_41396" x1="0.500035" y1="0" x2="0.500035" y2="600" gradientUnits="userSpaceOnUse">
<stop offset="0.5"/>
<stop offset="0.5" stop-opacity="0"/>
</linearGradient>
<linearGradient id="paint14_linear_3249_41396" x1="0.500035" y1="0" x2="0.500035" y2="600" gradientUnits="userSpaceOnUse">
<stop offset="0.5"/>
<stop offset="0.5" stop-opacity="0"/>
</linearGradient>
<linearGradient id="paint15_linear_3249_41396" x1="0.500035" y1="0" x2="0.500035" y2="600" gradientUnits="userSpaceOnUse">
<stop offset="0.5"/>
<stop offset="0.5" stop-opacity="0"/>
</linearGradient>
<linearGradient id="paint16_linear_3249_41396" x1="0.500035" y1="0" x2="0.500035" y2="600" gradientUnits="userSpaceOnUse">
<stop offset="0.5"/>
<stop offset="0.5" stop-opacity="0"/>
</linearGradient>
<linearGradient id="paint17_linear_3249_41396" x1="0" y1="300" x2="1189" y2="300" gradientUnits="userSpaceOnUse">
<stop offset="0.5"/>
<stop offset="0.5" stop-opacity="0"/>
</linearGradient>
<clipPath id="clip0_3249_41396">
<rect width="1187" height="600" fill="white" transform="matrix(-1 0 0 1 1187.5 0.600098)"/>
</clipPath>
<clipPath id="clip1_3249_41396">
<rect width="1189" height="600" fill="white" transform="matrix(-1 0 0 1 1188.5 0.600098)"/>
</clipPath>
<clipPath id="clip2_3249_41396">
<rect width="1189" height="600" fill="white" transform="matrix(-1 0 0 1 1188.5 0.600098)"/>
</clipPath>
<clipPath id="clip3_3249_41396">
<rect width="1189" height="600" fill="white" transform="matrix(-1 0 0 1 1188.5 0.600098)"/>
</clipPath>
</defs>
</svg>
